<svg width="24" height="24" viewBox="0 0 24 24" fill="none" xmlns="http://www.w3.org/2000/svg">
<path d="M22.0573 5.93359L22.0319 6.10556L21.32 10.9144C21.3199 10.9149 21.3198 10.9153 21.3198 10.9158C21.2767 11.2469 21.1649 11.5317 20.969 11.735C20.7698 11.9418 20.4977 12.0497 20.1667 12.0497L22.0573 5.93359ZM22.0573 5.93359H21.8835H6.49563H6.32204L6.34722 6.10535L7.20136 11.9313L7.22018 12.0597L7.34989 12.0596L20.1666 12.0497L22.0573 5.93359ZM7.57006 13.2664H7.39547L7.42177 13.439L7.58238 14.4931C7.5824 14.4932 7.58241 14.4933 7.58243 14.4934C7.63088 14.8212 7.75116 15.1068 7.94921 15.3122C8.14993 15.5203 8.42073 15.6356 8.7452 15.6356H20.2969C20.6053 15.6356 20.8798 15.8898 20.8798 16.239C20.8798 16.5882 20.6053 16.8424 20.2969 16.8424H8.57463C7.87915 16.8424 7.36769 16.6302 7.00383 16.2618C6.6369 15.8902 6.40484 15.3442 6.30203 14.6503C6.30203 14.6503 6.30202 14.6502 6.30201 14.6502L4.69492 3.62167L4.67621 3.4933H4.54649H1.15177C0.836447 3.4933 0.558203 3.21249 0.558203 2.88002C0.558203 2.55803 0.835424 2.27573 1.15135 2.27573H4.67763C5.17518 2.27573 5.45535 2.37181 5.62522 2.5287C5.79602 2.68643 5.88562 2.93297 5.93459 3.31073L5.93456 3.31074L5.935 3.31368L6.12615 4.58911L6.14529 4.71688H6.27449H22.6772C22.9237 4.71688 23.1142 4.79059 23.2412 4.90461C23.3662 5.01685 23.4406 5.1776 23.4413 5.37761C23.436 5.49813 23.4233 5.61821 23.4031 5.73716L23.4027 5.73973L22.5992 11.0536L22.5991 11.0542C22.4964 11.7533 22.2643 12.3044 21.8959 12.6797C21.5307 13.0518 21.0168 13.2664 20.3166 13.2664H7.57006ZM9.36959 21.7243H9.36835C8.53626 21.7243 7.8812 21.0771 7.8812 20.247C7.8812 19.4266 8.53688 18.7697 9.36835 18.7697L9.36898 18.7697C9.56313 18.7689 9.75552 18.8065 9.93504 18.8805C10.1146 18.9544 10.2777 19.0631 10.415 19.2004C10.5523 19.3377 10.661 19.5008 10.7349 19.6803C10.8088 19.8598 10.8465 20.0522 10.8456 20.2464L10.8456 20.2483C10.8472 20.4425 10.8102 20.6352 10.7366 20.815C10.6629 20.9948 10.5543 21.1582 10.4169 21.2956C10.2795 21.4329 10.1161 21.5416 9.93634 21.6152C9.75653 21.6888 9.56387 21.7259 9.36959 21.7243ZM20.2472 20.247C20.2472 21.0771 19.5925 21.7243 18.7601 21.7243C17.9372 21.7243 17.2729 21.0765 17.2729 20.247C17.2729 19.4272 17.9379 18.7697 18.7601 18.7697C19.592 18.7697 20.2472 19.4262 20.2472 20.247Z" fill="#101010" stroke="white" stroke-width="0.3"/>
</svg>
