<svg width="35.000000" height="30.000000" viewBox="0 0 35 30" fill="none" xmlns="http://www.w3.org/2000/svg" xmlns:xlink="http://www.w3.org/1999/xlink">
	<desc>
			Created with Pixso.
	</desc>
	<defs/>
	<path id="Vector" d="M12.3291 22.5839L30.0264 22.5839C30.6172 22.5839 31.1328 22.0956 31.1328 21.4393C31.1328 20.7832 30.6172 20.2949 30.0264 20.2949L12.5864 20.2949C11.7222 20.2949 11.1914 19.6842 11.0552 18.7539L10.8125 17.1516L30.0562 17.1516C32.27 17.1516 33.4077 15.778 33.7261 13.5963L34.939 5.52405C34.9712 5.3324 34.9917 5.13892 35 4.9447C35 4.21228 34.4541 3.70837 33.6201 3.70837L8.85645 3.70837L8.56787 1.77087C8.4165 0.595703 7.99219 0 6.4458 0L1.12207 0C0.515625 0 0 0.535156 0 1.14587C0 1.77087 0.515625 2.3053 1.12256 2.3053L6.24756 2.3053L8.67383 19.0592C8.99316 21.2258 10.1299 22.5839 12.3291 22.5839ZM32.4214 6.01233L31.3462 13.3215C31.2246 14.2676 30.7246 14.8477 29.8296 14.8477L10.48 14.8625L9.19043 6.01233L32.4214 6.01233ZM13.5273 29.9999C13.8506 30.0026 14.1714 29.9406 14.4707 29.8173C14.77 29.694 15.042 29.512 15.2705 29.2819C15.499 29.0518 15.6802 28.7782 15.8022 28.4771C15.9248 28.1759 15.9868 27.8533 15.9839 27.528C15.9854 27.2029 15.9229 26.8809 15.7998 26.5803C15.6768 26.2798 15.4961 26.0067 15.2676 25.7769C15.0391 25.547 14.7676 25.365 14.4692 25.2413C14.1704 25.1176 13.8501 25.0546 13.5273 25.0559C12.1479 25.0559 11.0557 26.1549 11.0557 27.528C11.0557 28.9166 12.1479 29.9999 13.5273 29.9999ZM27.7061 29.9999C29.0864 29.9999 30.1777 28.9166 30.1777 27.528C30.1777 26.1542 29.0864 25.0559 27.7061 25.0559C26.3413 25.0559 25.2344 26.1549 25.2344 27.528C25.2344 28.9166 26.3413 29.9999 27.7061 29.9999Z" fill="#FFFFFF" fill-opacity="1.000000" fill-rule="nonzero"/>
	<path id="Vector" d="M6.24756 2.3053L8.67383 19.0592C8.99316 21.2258 10.1299 22.5839 12.3291 22.5839L30.0264 22.5839C30.6172 22.5839 31.1328 22.0956 31.1328 21.4393C31.1328 20.7832 30.6172 20.2949 30.0264 20.2949L12.5864 20.2949C11.7222 20.2949 11.1914 19.6842 11.0552 18.7539L10.8882 17.6516L10.8125 17.1516L30.0562 17.1516C32.27 17.1516 33.4077 15.778 33.7261 13.5963L34.939 5.52405C34.9712 5.3324 34.9917 5.13892 35 4.9447C35 4.21228 34.4541 3.70837 33.6201 3.70837L8.85645 3.70837L8.56787 1.77087C8.4165 0.595703 7.99219 0 6.4458 0L1.12207 0C0.515625 0 0 0.535156 0 1.14587C0 1.77087 0.515625 2.3053 1.12256 2.3053L6.24756 2.3053ZM34.5 4.93457Q34.4883 5.1897 34.4448 5.44971L33.2314 13.5242Q32.9634 15.3605 31.9155 16.1187Q31.1787 16.6516 30.0562 16.6516L10.231 16.6516L10.5605 18.8264Q10.7275 19.9655 11.3799 20.4454Q11.8545 20.7949 12.5864 20.7949L30.0264 20.7949Q30.311 20.7949 30.4619 20.937Q30.6328 21.0975 30.6328 21.4395Q30.6328 21.6029 30.5684 21.7351Q30.5234 21.828 30.4463 21.9054Q30.3467 22.0057 30.2266 22.0497Q30.1328 22.0839 30.0264 22.0839L12.3291 22.0839Q11.2061 22.0839 10.4707 21.55Q9.43555 20.7981 9.16895 18.9875L6.68066 1.8053L1.12256 1.8053Q0.829102 1.8053 0.674316 1.65894Q0.5 1.49451 0.5 1.14587Q0.5 0.810791 0.66748 0.649536Q0.822754 0.5 1.12207 0.5L6.4458 0.5Q7.23145 0.5 7.64307 0.892334Q7.99365 1.22632 8.07324 1.84448L8.42529 4.20837L33.6201 4.20837Q34.1377 4.20837 34.3506 4.46313Q34.4976 4.63855 34.5 4.93457ZM31.0723 14.979Q31.6978 14.4982 31.8418 13.39L33.0005 5.51233L8.6123 5.51233L10.0474 15.3629L29.8296 15.3477Q30.5923 15.3477 31.0723 14.979ZM32.3481 6.51233L31.3462 13.3215C31.2246 14.2676 30.7246 14.8477 29.8296 14.8477L10.48 14.8625L9.26318 6.51233L9.19043 6.01233L32.4214 6.01233L32.3481 6.51233ZM13.5273 29.9999C13.8506 30.0026 14.1714 29.9406 14.4707 29.8173C14.77 29.694 15.042 29.512 15.2705 29.2819C15.499 29.0518 15.6802 28.7782 15.8022 28.4771C15.9248 28.1759 15.9868 27.8533 15.9839 27.528C15.9854 27.2029 15.9229 26.8809 15.7998 26.5803C15.6768 26.2798 15.4961 26.0067 15.2676 25.7769C15.0391 25.547 14.7676 25.365 14.4692 25.2413C14.1704 25.1176 13.8501 25.0546 13.5273 25.0559C12.1479 25.0559 11.0557 26.1549 11.0557 27.528C11.0557 28.9166 12.1479 29.9999 13.5273 29.9999ZM27.7061 29.9999C29.0864 29.9999 30.1777 28.9166 30.1777 27.528C30.1777 26.1542 29.0864 25.0559 27.7061 25.0559C26.3413 25.0559 25.2344 26.1549 25.2344 27.528C25.2344 28.9166 26.3413 29.9999 27.7061 29.9999ZM14.6079 29.1819Q14.4536 29.2833 14.2803 29.3549Q14.1221 29.42 13.957 29.4561Q13.7476 29.5017 13.5273 29.4999Q12.5415 29.4999 12.0488 29.0071Q11.5557 28.5142 11.5557 27.528Q11.5557 27.0922 11.7158 26.7263Q11.8584 26.4005 12.1279 26.1302Q12.3945 25.863 12.7163 25.7202Q13.0864 25.5559 13.5293 25.5559Q13.7207 25.5551 13.9053 25.5908Q14.0952 25.6276 14.2778 25.7032Q14.4512 25.7751 14.605 25.8767Q14.7705 25.9858 14.9131 26.1294Q15.0459 26.2631 15.1489 26.4167Q15.2603 26.5817 15.3369 26.7697Q15.395 26.9111 15.4302 27.0582Q15.4849 27.2885 15.4839 27.532Q15.4858 27.7313 15.4482 27.923Q15.4121 28.1094 15.3394 28.2887Q15.2627 28.4768 15.1519 28.642Q15.0488 28.7957 14.916 28.9294Q14.7729 29.0729 14.6079 29.1819ZM29.1846 26.0487Q29.6777 26.5417 29.6777 27.528Q29.6777 28.5142 29.1846 29.0071Q28.6919 29.4999 27.7061 29.4999Q26.7207 29.4999 26.2275 29.0071Q25.7344 28.5142 25.7344 27.528Q25.7344 26.5417 26.2275 26.0487Q26.7207 25.5559 27.7061 25.5559Q28.6919 25.5559 29.1846 26.0487Z" fill="#EF772A" fill-opacity="1.000000" fill-rule="evenodd"/>
</svg>
