<svg width="23.183105" height="19.748627" viewBox="0 0 23.1831 19.7486" fill="none" xmlns="http://www.w3.org/2000/svg" xmlns:xlink="http://www.w3.org/1999/xlink">
	<desc>
			Created with Pixso.
	</desc>
	<defs/>
	<path id="Vector" d="M8.1665 14.8667L19.8887 14.8667C20.2798 14.8667 20.6216 14.5453 20.6216 14.1133C20.6216 13.6813 20.2798 13.3599 19.8887 13.3599L8.33691 13.3599C7.76465 13.3599 7.41309 12.9579 7.32275 12.3454L7.16162 11.2907L19.9082 11.2907C21.375 11.2907 22.1284 10.3864 22.3394 8.95029L23.1431 3.63641C23.1641 3.51025 23.1777 3.38284 23.1831 3.255C23.1831 2.77286 22.8213 2.44113 22.269 2.44113L5.86621 2.44113L5.67529 1.16571C5.57471 0.392151 5.29395 0 4.26953 0L0.743164 0C0.341797 0 0 0.352295 0 0.754272C0 1.16571 0.341797 1.51758 0.743652 1.51758L4.13818 1.51758L5.74561 12.5464C5.95654 13.9727 6.70947 14.8667 8.1665 14.8667ZM21.4751 3.95786L20.7632 8.76944C20.6826 9.39215 20.3511 9.77399 19.7583 9.77399L6.94141 9.78384L6.0874 3.95786L21.4751 3.95786ZM8.95996 19.7486C9.17432 19.7503 9.38672 19.7095 9.58496 19.6283C9.7832 19.5471 9.96338 19.4274 10.1147 19.2759C10.2661 19.1245 10.3862 18.9443 10.4673 18.7461C10.5483 18.5479 10.5894 18.3355 10.5874 18.1213C10.5884 17.9073 10.5469 17.6953 10.4653 17.4975C10.3838 17.2996 10.2642 17.1199 10.1128 16.9686C9.96143 16.8173 9.78174 16.6975 9.58398 16.616C9.38623 16.5346 9.17432 16.4931 8.95996 16.494C8.04639 16.494 7.32324 17.2174 7.32324 18.1213C7.32324 19.0354 8.04639 19.7486 8.95996 19.7486ZM18.3521 19.7486C19.2661 19.7486 19.9888 19.0354 19.9888 18.1213C19.9888 17.217 19.2661 16.494 18.3521 16.494C17.4482 16.494 16.7148 17.2174 16.7148 18.1213C16.7148 19.0354 17.4482 19.7486 18.3521 19.7486Z" fill="#101010" fill-opacity="1.000000" fill-rule="nonzero"/>
	<path id="Vector" d="M4.13818 1.51758L5.74561 12.5464C5.95654 13.9727 6.70947 14.8667 8.1665 14.8667L19.8887 14.8667C20.2798 14.8667 20.6216 14.5453 20.6216 14.1133C20.6216 13.6813 20.2798 13.3599 19.8887 13.3599L8.33691 13.3599C7.76465 13.3599 7.41309 12.9579 7.32275 12.3454L7.20752 11.5907L7.16162 11.2907L19.9082 11.2907C21.375 11.2907 22.1284 10.3864 22.3394 8.95029L23.1431 3.63641C23.1641 3.51025 23.1777 3.38284 23.1831 3.255C23.1831 2.77286 22.8213 2.44113 22.269 2.44113L5.86621 2.44113L5.67529 1.16571C5.57471 0.392151 5.29395 0 4.26953 0L0.743164 0C0.341797 0 0 0.352295 0 0.754272C0 1.16571 0.341797 1.51758 0.743652 1.51758L4.13818 1.51758ZM22.8833 3.24893C22.8779 3.36221 22.8657 3.47644 22.8462 3.59158L22.0425 8.90671C21.9424 9.58704 21.7222 10.1011 21.3809 10.4489C21.3218 10.5086 21.2598 10.5634 21.1938 10.6133C20.8604 10.8649 20.4316 10.9907 19.9082 10.9907L6.8125 10.9907L7.02588 12.3893C7.08105 12.7643 7.21582 13.0635 7.42969 13.2869C7.43066 13.2881 7.43164 13.2893 7.43311 13.2906C7.52637 13.3874 7.62988 13.4652 7.74268 13.524C7.91748 13.6146 8.11523 13.6599 8.33691 13.6599L19.8887 13.6599C19.9409 13.6599 19.9902 13.6685 20.0361 13.6857C20.0923 13.7066 20.1436 13.7403 20.1899 13.7867C20.2271 13.8242 20.2568 13.8656 20.2783 13.9108C20.3071 13.9714 20.3218 14.0389 20.3218 14.1133C20.3218 14.1877 20.3071 14.2552 20.2783 14.3158C20.2568 14.361 20.2271 14.4023 20.1899 14.4399C20.1436 14.4863 20.0923 14.52 20.0361 14.5409C19.9902 14.5581 19.9409 14.5667 19.8887 14.5667L8.1665 14.5667C7.64355 14.5667 7.21631 14.441 6.8833 14.1895C6.81982 14.1412 6.75928 14.0882 6.70215 14.0306C6.3623 13.6861 6.14209 13.1769 6.04248 12.5032L4.39795 1.21756L0.743652 1.21756C0.702148 1.21756 0.662109 1.21176 0.624023 1.20013C0.555664 1.17923 0.493164 1.13953 0.436035 1.08099C0.383789 1.02737 0.34668 0.968567 0.324707 0.904572C0.308105 0.85733 0.299805 0.80722 0.299805 0.754272C0.299805 0.709076 0.306641 0.665833 0.319336 0.624603C0.340332 0.556427 0.378906 0.493683 0.435059 0.436401C0.493164 0.377167 0.557129 0.337219 0.626465 0.316589C0.663574 0.305511 0.702637 0.299988 0.743164 0.299988L4.26953 0.299988C4.6792 0.299988 4.96143 0.371063 5.11523 0.513153C5.18213 0.57486 5.23633 0.659058 5.27734 0.765717C5.3208 0.877319 5.35449 1.02545 5.37842 1.21017L5.60791 2.74115L22.269 2.74115C22.4648 2.74115 22.6182 2.7897 22.7285 2.88678C22.73 2.88803 22.7314 2.88925 22.7329 2.8905C22.7642 2.91858 22.7905 2.94971 22.812 2.98395C22.8584 3.05792 22.8823 3.14624 22.8833 3.24893ZM20.6689 9.71338C20.8799 9.49451 21.0103 9.19363 21.0601 8.81076L21.8228 3.65787L5.74023 3.65787L6.68262 10.084L19.7583 10.074C20.0166 10.074 20.2402 10.0172 20.4307 9.90366C20.5171 9.85199 20.5962 9.78857 20.6689 9.71338ZM21.4307 4.25784L20.7632 8.76944C20.6826 9.39215 20.3511 9.77399 19.7583 9.77399L6.94141 9.78384L6.13135 4.25784L6.0874 3.95786L21.4751 3.95786L21.4307 4.25784ZM8.95996 19.7486C9.17432 19.7503 9.38672 19.7095 9.58496 19.6283C9.7832 19.5471 9.96338 19.4274 10.1147 19.2759C10.2661 19.1245 10.3862 18.9443 10.4673 18.7461C10.5483 18.5479 10.5894 18.3355 10.5874 18.1213C10.5884 17.9073 10.5469 17.6953 10.4653 17.4975C10.3838 17.2996 10.2642 17.1199 10.1128 16.9686C9.96143 16.8173 9.78174 16.6975 9.58398 16.616C9.38623 16.5346 9.17432 16.4931 8.95996 16.494C8.04639 16.494 7.32324 17.2174 7.32324 18.1213C7.32324 19.0354 8.04639 19.7486 8.95996 19.7486ZM18.3521 19.7486C19.2661 19.7486 19.9888 19.0354 19.9888 18.1213C19.9888 17.217 19.2661 16.494 18.3521 16.494C17.4482 16.494 16.7148 17.2174 16.7148 18.1213C16.7148 19.0354 17.4482 19.7486 18.3521 19.7486ZM9.70117 19.2289C9.62939 19.2767 9.55273 19.3173 9.47119 19.3507C9.39941 19.38 9.32617 19.4028 9.25195 19.419C9.15674 19.4395 9.05957 19.4494 8.95996 19.4486C8.83203 19.4486 8.7085 19.4321 8.58936 19.3992C8.53662 19.3846 8.48438 19.3667 8.43359 19.3456C8.34668 19.3097 8.26514 19.2657 8.18945 19.2135C8.12598 19.1696 8.06592 19.12 8.01025 19.0647C7.94922 19.0043 7.89502 18.9392 7.84814 18.8695C7.80078 18.7994 7.76025 18.7246 7.72705 18.645C7.70557 18.5942 7.6875 18.5425 7.67285 18.4899C7.63965 18.3717 7.62305 18.2488 7.62305 18.1213C7.62305 18.0077 7.63672 17.8974 7.66357 17.7906C7.67969 17.7266 7.70068 17.6638 7.72656 17.6021C7.75928 17.5255 7.79785 17.4531 7.84326 17.3851C7.8916 17.3122 7.94727 17.2443 8.01074 17.1813C8.07031 17.1218 8.13428 17.0689 8.20312 17.0225C8.27539 16.9738 8.35254 16.9323 8.43457 16.898C8.48682 16.8761 8.54053 16.8576 8.59473 16.8426C8.7124 16.8102 8.83496 16.794 8.96143 16.794C9.04932 16.7936 9.13574 16.8017 9.2207 16.8183C9.30518 16.8349 9.38818 16.8599 9.46973 16.8934C9.55127 16.927 9.62793 16.9677 9.69971 17.0156C9.77148 17.0635 9.83838 17.1185 9.90088 17.1807C9.96289 17.243 10.0181 17.3101 10.0659 17.3819C10.1138 17.4537 10.1543 17.5303 10.188 17.6117C10.2153 17.6782 10.2373 17.7459 10.2529 17.815C10.2764 17.9152 10.2881 18.0181 10.2876 18.1238C10.2881 18.2118 10.2803 18.2982 10.2642 18.383C10.2476 18.4678 10.2227 18.5509 10.1895 18.6324C10.1562 18.714 10.1157 18.7907 10.0679 18.8626C10.02 18.9345 9.96484 19.0015 9.90283 19.0638C9.84033 19.126 9.77344 19.1811 9.70117 19.2289ZM19.6479 17.7882C19.6753 17.8958 19.689 18.0068 19.689 18.1213C19.689 18.2491 19.6724 18.3722 19.6392 18.4907C19.6245 18.543 19.6064 18.5945 19.585 18.6451C19.5518 18.7248 19.5112 18.7998 19.4639 18.87C19.4165 18.9396 19.3628 19.0045 19.3018 19.0647C19.2461 19.12 19.1865 19.1695 19.123 19.2133C19.0474 19.2655 18.9658 19.3096 18.8789 19.3456C18.8281 19.3665 18.7764 19.3843 18.7241 19.3988C18.6045 19.432 18.4805 19.4486 18.3521 19.4486C18.2373 19.4486 18.1265 19.4351 18.0186 19.4082C17.9546 19.3922 17.8916 19.3713 17.8296 19.3457C17.7456 19.3108 17.6665 19.2683 17.5923 19.2183C17.5259 19.1731 17.4634 19.1218 17.4053 19.0643C17.3403 19.0001 17.2832 18.9308 17.2334 18.8564C17.1895 18.7898 17.1514 18.719 17.1196 18.6441C17.0957 18.5875 17.0757 18.5298 17.0601 18.4709C17.0298 18.3584 17.0146 18.2419 17.0146 18.1213C17.0146 18.0143 17.0269 17.9103 17.0513 17.8092C17.0684 17.7391 17.0908 17.6704 17.1196 17.6031C17.1499 17.5311 17.1865 17.4629 17.2285 17.3984C17.2793 17.3208 17.3384 17.2485 17.4058 17.1817C17.4678 17.1199 17.5347 17.0652 17.6064 17.0175C17.6768 16.9709 17.7515 16.931 17.8306 16.8979C17.8984 16.8694 17.9678 16.8468 18.0386 16.83C18.1401 16.806 18.2446 16.794 18.3521 16.794C18.4731 16.794 18.5908 16.809 18.7046 16.8391C18.7632 16.8547 18.8213 16.8743 18.8779 16.898C18.96 16.9323 19.0376 16.9739 19.1099 17.0229C19.1782 17.0691 19.2422 17.1219 19.3018 17.1811C19.3647 17.2438 19.4199 17.3115 19.4683 17.384C19.5137 17.4523 19.5527 17.5249 19.5854 17.6019C19.6108 17.6628 19.6318 17.7249 19.6479 17.7882Z" fill="#FFFFFF" fill-opacity="1.000000" fill-rule="evenodd"/>
</svg>
