<svg width="80.000000" height="80.000000" viewBox="0 0 80 80" fill="none" xmlns="http://www.w3.org/2000/svg" xmlns:xlink="http://www.w3.org/1999/xlink">
	<desc>
			Created with Pixso.
	</desc>
	<defs>
		<clipPath id="clip11_53">
			<rect id="Frame 21" width="80.000000" height="80.000000" fill="white" fill-opacity="0"/>
		</clipPath>
	</defs>
	<g clip-path="url(#clip11_53)">
		<path id="Vector" d="M24.7559 59.3445C24.7559 56.9111 22.7778 54.9333 20.3447 54.9333C17.8779 54.9333 15.8779 56.9111 15.8779 59.3445C15.8779 61.8223 17.8447 63.7556 20.3447 63.7556C22.8223 63.7556 24.7559 61.8223 24.7559 59.3445Z" fill="#101010" fill-opacity="1.000000" fill-rule="nonzero"/>
		<path id="Vector" d="M16.9556 45.2667L31.3223 45.2667C31.6221 45.2667 31.8667 45.0223 31.8667 44.7223C31.8667 44.4224 31.6221 44.1779 31.3223 44.1779L16.9556 44.1779C16.6558 44.1779 16.4111 44.4224 16.4111 44.7223C16.4111 45.0223 16.6558 45.2667 16.9556 45.2667Z" fill="#101010" fill-opacity="1.000000" fill-rule="nonzero"/>
		<path id="Vector" d="M16.9556 48.811L31.3223 48.811C31.6221 48.811 31.8667 48.5667 31.8667 48.2666C31.8667 47.9666 31.6221 47.7222 31.3223 47.7222L16.9556 47.7222C16.6558 47.7222 16.4111 47.9666 16.4111 48.2666C16.4111 48.5667 16.6558 48.811 16.9556 48.811Z" fill="#101010" fill-opacity="1.000000" fill-rule="nonzero"/>
		<path id="Vector" d="M75.0112 67.9889L70.1553 67.9889C73.2886 66.3667 75.4331 63.1111 75.4331 59.3445C75.4331 57.8334 75.0557 56.3334 74.3555 54.9778L74.5112 54.9C75 54.6445 75.3442 54.2001 75.4668 53.6667C75.5889 53.1444 75.4775 52.5889 75.1665 52.1667C72.6997 48.8112 68.6997 47.0778 64.7334 47.3112L63.6001 44.5333L57.7554 30.1667L58.0557 30.1667C58.8887 30.1667 59.5776 29.6111 59.811 28.8556C61.4556 28.5 62.6665 27.0555 62.6665 25.3445C62.6665 23.6222 61.4668 22.189 59.811 21.8334C59.5776 21.0778 58.8887 20.5222 58.0557 20.5222L51.6777 20.5222C49.6445 20.5222 47.8555 21.8223 47.1665 23.7112L46.0889 23.7112C45.189 23.7112 44.4556 24.4445 44.4556 25.3445C44.4556 26.2445 45.189 26.9778 46.0889 26.9778L47.1665 26.9778C47.7998 28.7112 49.3442 29.9222 51.1553 30.1222L55.2441 48.8112C55.4111 49.5778 55.189 50.3556 54.6221 50.9111L51.8774 53.6444C51.4556 54.0778 50.8887 54.3112 50.2666 54.3112L41.8774 54.3112C41.2666 54.3112 40.6997 54.0778 40.2666 53.6444L37.9556 51.3445C37.5332 50.9222 37.2886 50.3334 37.2886 49.7334L37.2886 38.6667C38.6221 38.2223 39.6001 36.9667 39.6001 35.4778C39.6001 33.6222 38.0889 32.1111 36.2222 32.1111L33.2109 32.1111C33.689 31.5555 33.9775 30.8556 33.9775 30.0667L33.9775 14.0555C33.9775 12.3223 32.5664 10.9111 30.833 10.9111L10.7998 10.9111C9.06641 10.9111 7.65527 12.3223 7.65527 14.0555L7.65527 30.0555C7.65527 31.7889 9.06641 33.2001 10.7998 33.2001L13.1001 33.2001C12.5557 33.8 12.2109 34.5889 12.2109 35.4667C12.2109 36.9778 13.2109 38.2334 14.5776 38.6667L5.32227 49.2556C4.78857 49.8778 4.48877 50.6667 4.48877 51.4889L4.48877 57.0111C4.48877 58.8667 6 60.3778 7.8667 60.3778L10.6108 60.3778C10.9668 63.7001 13.0112 66.5222 15.8774 68L4.98877 68C4.68896 67.9889 4.44434 68.2334 4.44434 68.5444C4.44434 68.8445 4.68896 69.0889 4.98877 69.0889L75.0112 69.0889C75.311 69.0889 75.5557 68.8445 75.5557 68.5444C75.5557 68.2334 75.311 67.9889 75.0112 67.9889ZM65.6997 67.9889C62.4443 67.9889 59.5444 66.2667 58.0332 63.4667L59.9111 62.4889L61.7886 61.5111C62.5664 62.8889 64.0332 63.7556 65.689 63.7556C68.1665 63.7556 70.1001 61.8223 70.1001 59.3445C70.1001 58.6667 69.9443 58.0222 69.6553 57.4222L73.3999 55.4778C74.0112 56.689 74.333 58.0111 74.333 59.3556C74.333 64.1111 70.4668 67.9889 65.6997 67.9889ZM65.4219 48.3667C68.8223 48.3667 72.1665 49.9445 74.2778 52.8112C74.4111 52.9889 74.4443 53.2001 74.3999 53.4222C74.3442 53.6445 74.1997 53.8334 74 53.9333L69.4775 56.2889L69.0776 56.5L69 56.5333L57.0444 62.7556L56.1553 63.2223C55.9556 63.3223 55.7109 63.3334 55.5 63.2556C55.2886 63.1667 55.1445 63.0111 55.0776 62.8112C54.7554 61.8556 54.5776 60.8889 54.522 59.9333C54.522 59.9 54.5444 59.8778 54.5444 59.8556C54.5444 59.8223 54.5332 59.7889 54.522 59.7445C54.3555 55.6 56.5664 51.6222 60.4556 49.6C62.022 48.7556 63.7334 48.3667 65.4219 48.3667ZM48.3442 26.9667L52.8555 26.9667C53.7554 26.9667 54.5 26.2334 54.5 25.3334C54.5 24.4333 53.7666 23.7001 52.8555 23.7001L48.3442 23.7001C48.9668 22.4333 50.2441 21.6 51.689 21.6L58.0664 21.6C58.4775 21.6 58.8223 21.9333 58.8223 22.3556L58.8223 28.3223C58.8223 28.7334 58.4888 29.0778 58.0664 29.0778L56.9556 29.0778L56.9443 29.0778L51.6445 29.0778C50.2222 29.0555 48.9556 28.2223 48.3442 26.9667ZM20.8223 27.7334C17.689 27.7334 15.1445 25.189 15.1445 22.0667C15.1445 18.9333 17.689 16.3889 20.8223 16.3889C23.9556 16.3889 26.5 18.9333 26.5 22.0667C26.4888 25.189 23.9443 27.7334 20.8223 27.7334ZM13.2998 35.4667C13.2998 34.2556 14.2441 33.2778 15.4331 33.2001L30.811 33.2001C30.8555 33.2001 30.8999 33.189 30.9556 33.189L36.2109 33.189C37.4668 33.189 38.4888 34.2112 38.4888 35.4667C38.4888 36.7223 37.4668 37.7445 36.2109 37.7445L15.5776 37.7445C14.3223 37.7445 13.2998 36.7223 13.2998 35.4667ZM5.57764 57.0111L5.57764 51.4889C5.57764 50.9333 5.77783 50.4 6.14453 49.9778L15.8667 38.8445L36.189 38.8445L36.189 49.7223C36.189 50.6111 36.5444 51.4778 37.1777 52.1111L39.4888 54.4111C40.1221 55.0444 40.9775 55.4 41.8774 55.4L50.2666 55.4C51.1777 55.4 52.022 55.0444 52.6553 54.4111L55.3999 51.6779C56.2222 50.8667 56.5664 49.7001 56.311 48.5667L52.2778 30.1555L56.5664 30.1555L59.5557 37.4889C58.6997 37.6111 58.022 38.3334 58.022 39.2334L58.022 42.7556C58.022 43.7334 58.811 44.5222 59.7886 44.5222L62.4111 44.5222L63.5889 47.4222C62.3442 47.6111 61.1108 48 59.9443 48.6C55.8223 50.7445 53.4111 54.8889 53.4111 59.2778L30.0776 59.2778C30.0557 56.5555 28.9219 54.1 27.1001 52.3445L31.3223 52.3445C31.6221 52.3445 31.8667 52.1 31.8667 51.8C31.8667 51.5 31.6221 51.2556 31.3223 51.2556L25.7554 51.2556C24.2109 50.2223 22.3555 49.6111 20.3555 49.6111C14.9775 49.6111 10.5889 53.9445 10.5557 59.2778L7.85547 59.2778C6.6001 59.2778 5.57764 58.2667 5.57764 57.0111ZM11.6665 59.8112L11.6665 59.6779C11.6665 59.5667 11.6553 59.4556 11.6553 59.3445C11.6553 54.5778 15.5664 50.7112 20.3667 50.7112C25.1333 50.7112 29 54.5889 29 59.3445C29 64.1111 25.1221 67.9889 20.3667 67.9889C15.6221 67.9889 11.8999 64.4333 11.6665 59.8112ZM30.0332 60.3778L53.4668 60.3778C53.5557 61.3 53.7334 62.2334 54.0444 63.1445C54.2109 63.6555 54.6001 64.0555 55.1001 64.2556C55.3223 64.3445 55.5664 64.3889 55.7998 64.3889C56.1001 64.3889 56.3887 64.3223 56.6665 64.1779L57.0889 63.9556C58.0444 65.7112 59.5 67.1 61.2441 67.9889L24.811 67.9889C27.6445 66.5222 29.6777 63.7001 30.0332 60.3778Z" fill="#101010" fill-opacity="1.000000" fill-rule="nonzero"/>
	</g>
</svg>
