<svg width="16" height="16" viewBox="0 0 16 16" fill="none" xmlns="http://www.w3.org/2000/svg">
<path d="M2.33301 13.3334C2.06634 13.3334 1.83301 13.2334 1.63301 13.0334C1.43301 12.8334 1.33301 12.6 1.33301 12.3334V3.66669C1.33301 3.40002 1.43301 3.16669 1.63301 2.96669C1.83301 2.76669 2.06634 2.66669 2.33301 2.66669H13.6663C13.933 2.66669 14.1663 2.76669 14.3663 2.96669C14.5663 3.16669 14.6663 3.40002 14.6663 3.66669V12.3334C14.6663 12.6 14.5663 12.8334 14.3663 13.0334C14.1663 13.2334 13.933 13.3334 13.6663 13.3334H2.33301ZM7.99967 8.30002L2.33301 4.58335V12.3334H13.6663V4.58335L7.99967 8.30002ZM7.99967 7.30002L13.5997 3.66669H2.41634L7.99967 7.30002ZM2.33301 4.58335V3.66669V12.3334V4.58335Z" fill="#888888"/>
</svg>
