<svg width="32.000000" height="32.000000" viewBox="0 0 32 32" fill="none" xmlns="http://www.w3.org/2000/svg" xmlns:xlink="http://www.w3.org/1999/xlink">
	<desc>
			Created with Pixso.
	</desc>
	<defs>
		<clipPath id="clip18_784">
			<rect id="guidance:women-restroom" width="32.000000" height="32.000000" fill="white" fill-opacity="0"/>
		</clipPath>
	</defs>
	<rect id="guidance:women-restroom" width="32.000000" height="32.000000" fill="#FFFFFF" fill-opacity="0"/>
	<g clip-path="url(#clip18_784)">
		<path id="Vector" d="M13.333 32L13.333 24.6667L8.6665 24.6667L8.6665 24.3335L8.7627 24.1335C10.8945 19.656 12.0005 14.7593 12 9.80005L12 9.36279C13.2808 8.89355 14.6357 8.65747 16 8.66553C17.7173 8.66553 19.0811 9.02002 20 9.36279L20 9.80005C20 14.76 21.1064 19.6548 23.2373 24.1321L23.333 24.332L23.333 24.6655L18.6665 24.6655L18.6665 32M13.6665 3C13.6665 2.38208 13.9121 1.78906 14.3491 1.35205C14.7861 0.915039 15.3789 0.669434 15.9971 0.669434C16.6152 0.669434 17.208 0.915039 17.645 1.35205C18.0825 1.78906 18.3276 2.38208 18.3276 3C18.3276 4.66675 16.1997 6 16.1997 6L15.7998 6C15.7998 6 13.6665 4.66675 13.6665 3Z" stroke="#101010" stroke-opacity="1.000000" stroke-width="0.850000"/>
	</g>
</svg>
