<svg width="80.000000" height="80.000000" viewBox="0 0 80 80" fill="none" xmlns="http://www.w3.org/2000/svg" xmlns:xlink="http://www.w3.org/1999/xlink">
	<desc>
			Created with Pixso.
	</desc>
	<defs>
		<clipPath id="clip11_59">
			<rect id="Frame 23" width="80.000000" height="80.000000" fill="white" fill-opacity="0"/>
		</clipPath>
	</defs>
	<g clip-path="url(#clip11_59)">
		<path id="Vector" d="M28.9116 44.7444C24.5005 44.7444 20.9004 48.3333 20.9004 52.7555C20.9004 57.1777 24.4893 60.7777 28.9116 60.7777C33.3228 60.7777 36.9229 57.1777 36.9229 52.7555C36.9116 48.3333 33.3228 44.7444 28.9116 44.7444Z" fill="#101010" fill-opacity="1.000000" fill-rule="evenodd"/>
		<path id="Vector" d="M74.7222 74.4554L72.811 74.4554C73.5332 73.7555 73.9888 72.7777 73.9888 71.6888L73.9888 47.511L73.9888 46.7666C73.9888 45.9221 73.7109 45.0889 73.189 44.411L68 37.6333L68 34.0555C68 33.2222 67.3223 32.5444 66.4888 32.5444L52.1333 32.5444C51.2998 32.5444 50.6221 33.2222 50.6221 34.0555L50.6221 37.6333L48.0112 40.8444L48.8442 31.0667L50.8667 31.0667C52.1001 31.0667 53.1001 30.0667 53.1001 28.8333L53.1001 24.6666C53.1001 23.4332 52.1001 22.4332 50.8667 22.4332L48.9224 22.4332L46.8779 17.6666C46.1445 15.9777 44.4888 14.8888 42.6553 14.8888L36.1445 14.8888L37.6001 10.9554L43.0557 9.14441C44.3223 8.72217 45 7.35547 44.5889 6.07776C44.1553 4.83325 42.7891 4.15552 41.5444 4.56665L34.9775 6.74438C34.2891 6.98877 33.7446 7.51099 33.4888 8.18884L31.0112 14.8888L15.1777 14.8888C13.3335 14.8888 11.6777 15.9777 10.9556 17.6666L8.8999 22.4443L6.95557 22.4443C5.72217 22.4443 4.72217 23.4443 4.72217 24.6777L4.72217 28.8333C4.72217 30.0667 5.72217 31.0667 6.95557 31.0667L8.97754 31.0667L12.2891 69.9443C12.4443 71.8221 13.4775 73.4332 14.9331 74.4554L7.85547 74.4554C7.55566 74.4554 7.2998 74.7 7.2998 75.011C7.2998 75.3221 7.54443 75.5555 7.85547 75.5555L18.4111 75.5555L39.4224 75.5555L61.1001 75.5555L70.1221 75.5555L74.7334 75.5555C75.0332 75.5555 75.2891 75.311 75.2891 74.9999C75.2891 74.6888 75.022 74.4554 74.7222 74.4554ZM11.9668 18.1111C12.522 16.8221 13.7778 15.9999 15.1777 15.9999L30.5776 15.9999L30.5776 16.011L35.7222 16.011L35.7222 15.9999L42.6445 15.9999C44.0444 15.9999 45.2998 16.8333 45.8555 18.1111L47.7109 22.4332L10.1001 22.4332L11.9668 18.1111ZM51.7222 34.0555C51.7222 33.8333 51.8999 33.6444 52.1333 33.6444L66.4888 33.6444C66.7109 33.6444 66.8999 33.8221 66.8999 34.0555L66.8999 37.2777L51.7222 37.2777L51.7222 34.0555ZM18.4111 74.4554C15.8223 74.4554 13.6221 72.4332 13.3999 69.8555L10.0889 31.0667L47.7222 31.0667L46.7554 42.3666L45.1221 44.3777C44.5664 45.0667 44.2554 45.9332 44.2554 46.8221L44.2554 46.9554L44.2554 70.7222C43.6665 72.9221 41.6777 74.4554 39.4111 74.4554L18.4111 74.4554ZM42.8887 74.4554C43.5 74.0333 44.0444 73.4999 44.4775 72.8777C44.6777 73.4777 45 74.0222 45.4443 74.4554L42.8887 74.4554ZM60.5332 74.4443L48.1333 74.4443C46.6108 74.4443 45.3667 73.2 45.3667 71.6777L45.3667 47.511L60.5332 47.511L60.5332 74.4443ZM61.3442 44.4443C60.9224 44.9554 60.6665 45.5889 60.5776 46.2444C60.5664 46.2999 60.5557 46.3555 60.5444 46.411L45.3999 46.411C45.3999 46.3999 45.3999 46.3999 45.3999 46.3888C45.4331 46.1777 45.5 45.9666 45.5776 45.7777C45.6001 45.7333 45.6221 45.6888 45.6445 45.6444C45.7334 45.4443 45.8442 45.2555 45.9888 45.0889L51.4331 38.3888L66.2778 38.3888L61.3442 44.4443ZM70.1108 74.4554L61.6333 74.4554L61.6333 47.511L72.8779 47.511L72.8779 71.6777C72.8779 73.2111 71.6445 74.4554 70.1108 74.4554Z" fill="#101010" fill-opacity="1.000000" fill-rule="evenodd"/>
		<path id="Vector" d="M49.0444 66.3223L56.5337 66.3223C57.4336 66.3223 58.167 65.5889 58.167 64.6888L58.167 60.1555C58.167 59.2555 57.4336 58.5222 56.5337 58.5222L49.0444 58.5222C48.1445 58.5222 47.4111 59.2555 47.4111 60.1555L47.4111 64.6888C47.3999 65.5889 48.1333 66.3223 49.0444 66.3223Z" fill="#101010" fill-opacity="1.000000" fill-rule="evenodd"/>
		<path id="Vector" d="M60.2446 34.9111L56.9224 34.9111C56.6221 34.9111 56.3667 35.1555 56.3667 35.4667C56.3667 35.7778 56.6113 36.0222 56.9224 36.0222L60.2446 36.0222C60.5444 36.0222 60.7998 35.7778 60.7998 35.4667C60.7998 35.1555 60.5444 34.9111 60.2446 34.9111Z" fill="#101010" fill-opacity="1.000000" fill-rule="evenodd"/>
	</g>
</svg>
