<svg width="37.000000" height="36.000000" viewBox="0 0 37 36" fill="none" xmlns="http://www.w3.org/2000/svg" xmlns:xlink="http://www.w3.org/1999/xlink">
	<desc>
			Created with Pixso.
	</desc>
	<defs/>
	<path id="Vector" d="M27.915 35.9536C27.9673 35.9856 28.0264 36 28.084 36C28.1953 36 28.3037 35.9438 28.3643 35.8445C30.7979 31.8801 32.0195 27.5952 32 23.105C31.9868 20.2996 31.2603 17.4973 29.8403 14.7803C26.7539 8.86963 27.2886 3.23169 29.0923 0.493652C29.1909 0.346191 29.1465 0.147461 28.9941 0.0512695C28.8433 -0.0449219 28.6396 -0.00170898 28.5415 0.147461C26.6689 2.99146 26.0698 8.76001 29.1152 14.7976C28.3467 15.2214 25.1504 16.7214 18.4712 16.7214C11.9136 16.7214 8.71387 15.2739 7.87256 14.821C10.9316 8.7749 10.333 2.99512 8.4585 0.147461C8.36182 -0.00170898 8.15869 -0.043457 8.00586 0.0512695C7.85352 0.145752 7.80908 0.344482 7.90771 0.493652C9.70996 3.23169 10.2461 8.86963 7.15967 14.7803C5.73828 17.499 5.01318 20.2996 5 23.105C4.98047 27.5952 6.20361 31.8816 8.63574 35.8445C8.69824 35.9438 8.80615 36 8.91797 36C8.9751 36 9.03418 35.9856 9.08496 35.9536C9.24072 35.8638 9.2915 35.6665 9.19824 35.5144C6.82861 31.6526 5.63672 27.4797 5.65625 23.1082C5.66016 22.3196 5.72217 21.531 5.84277 20.7441C11.4263 20.8335 15.0376 23.6138 16.4443 26.0017C16.812 26.626 17.4561 27.0442 18.1729 27.1431L18.1729 35.6794C18.1729 35.8557 18.3203 36 18.501 36C18.6826 36 18.8286 35.8557 18.8286 35.6794L18.8286 27.1431C19.5449 27.0442 20.188 26.626 20.5571 26.0017C21.9639 23.6155 25.5732 20.8337 31.1577 20.7441C31.2783 21.5308 31.3403 22.3193 31.3438 23.1082C31.3633 27.478 30.1714 31.6526 27.8018 35.5142C27.71 35.665 27.7593 35.8621 27.915 35.9536ZM31.0469 20.105C25.2461 20.231 21.4722 23.1638 19.9883 25.6826C19.6865 26.1951 19.1309 26.5154 18.5308 26.5256C18.521 26.5247 18.5107 26.5242 18.501 26.5242C18.4907 26.5242 18.4805 26.5247 18.4707 26.5256C17.8706 26.5151 17.3149 26.1936 17.0137 25.6826C15.5293 23.1638 11.7554 20.2307 5.95361 20.105C6.26025 18.5208 6.80273 16.9465 7.57715 15.3979C8.54346 15.9219 11.8042 17.3628 18.4712 17.3628C25.2466 17.3628 28.5044 15.876 29.4106 15.3735C30.1919 16.9309 30.7388 18.5129 31.0469 20.105Z" fill="#101010" fill-opacity="1.000000" fill-rule="evenodd"/>
	<path id="Vector" d="M33.3291 22.6809C33.3291 22.8574 33.4775 23 33.6587 23C33.8418 22.9983 33.9883 22.8542 33.9897 22.6843C33.9766 19.8792 33.2471 17.0771 31.8203 14.3604C31.0063 12.8086 30.4014 11.2585 30.021 9.75171C29.9619 9.51465 30.0161 9.26782 30.1724 9.07373C30.3306 8.87671 30.5679 8.7644 30.8252 8.7644L32.0986 8.7644L32.0986 10.5806C32.0986 10.7039 32.1729 10.8179 32.2881 10.8706C32.4033 10.9236 32.54 10.906 32.6392 10.8257L36.8813 7.37939C36.957 7.3186 37 7.22876 37 7.13257C37 7.03638 36.957 6.94678 36.8813 6.88574L32.6392 3.43945C32.54 3.35938 32.4033 3.3418 32.2881 3.39453C32.1729 3.44751 32.0986 3.55981 32.0986 3.68481L32.0986 5.50098L30.4858 5.50098C30.25 5.50098 30.0327 5.40796 29.8745 5.23804C29.7163 5.06958 29.6406 4.85156 29.6616 4.62402C29.7344 3.84668 29.8696 3.09961 30.0605 2.40405C30.1084 2.23242 30.0044 2.05786 29.8281 2.01123C29.6519 1.96484 29.4722 2.06592 29.4248 2.2373C29.2236 2.96826 29.0835 3.75049 29.0059 4.5647C28.9683 4.96875 29.1084 5.37109 29.3882 5.6709C29.6685 5.97046 30.0688 6.14209 30.4858 6.14209L32.4282 6.14209C32.6094 6.14209 32.7578 5.9978 32.7578 5.82153L32.7578 4.36914L36.1562 7.12939L32.7578 9.88965L32.7578 8.4375C32.7578 8.26099 32.6094 8.11694 32.4282 8.11694L30.8252 8.11694C30.3652 8.11694 29.937 8.31885 29.6538 8.67139C29.3721 9.021 29.2715 9.46802 29.3799 9.89771C29.7725 11.4526 30.395 13.0505 31.2319 14.6455C32.6108 17.2744 33.3179 19.9768 33.3291 22.6809Z" fill="#101010" fill-opacity="1.000000" fill-rule="nonzero"/>
	<path id="Vector" d="M3.33936 23C3.15674 23 3.01025 22.8567 3.01025 22.6799C3.02344 19.8921 3.75146 17.1091 5.17969 14.4072C5.99365 12.8669 6.59814 11.3264 6.979 9.82739C7.03809 9.59155 6.98389 9.34619 6.82715 9.15356C6.66943 8.95752 6.43018 8.84595 6.1748 8.84595L4.90137 8.84595L4.90137 10.6509C4.90137 10.7751 4.82715 10.8867 4.71191 10.9392C4.59668 10.9919 4.45996 10.9744 4.36084 10.8948L0.118652 7.46973C0.0429688 7.40918 0 7.32007 0 7.22437C0 7.12891 0.0429688 7.03955 0.118652 6.979L4.36084 3.55396C4.45996 3.47437 4.59668 3.45679 4.71191 3.50952C4.82715 3.56201 4.90137 3.67505 4.90137 3.79785L4.90137 5.60278L6.51416 5.60278C6.75 5.60278 6.96582 5.51025 7.12549 5.34131C7.28369 5.17407 7.35938 4.95605 7.33838 4.7312C7.26074 3.9126 7.11426 3.12866 6.90479 2.40381C6.85547 2.23511 6.95752 2.05835 7.13379 2.01196C7.30859 1.96411 7.49121 2.06299 7.53906 2.2334C7.75977 2.99487 7.91309 3.81689 7.99365 4.67407C8.03174 5.07373 7.89355 5.47534 7.61182 5.77319C7.33008 6.07104 6.93115 6.24146 6.51416 6.24146L4.57178 6.24146C4.39062 6.24146 4.24219 6.09814 4.24219 5.92285L4.24219 4.47974L0.84375 7.22266L4.24219 9.96606L4.24219 8.52271C4.24219 8.34741 4.39062 8.2041 4.57178 8.2041L6.1748 8.2041C6.63477 8.2041 7.06152 8.40479 7.34619 8.75537C7.62793 9.10254 7.72705 9.54688 7.62012 9.97388C7.22754 11.519 6.60498 13.1074 5.76807 14.6909C4.38916 17.3018 3.68408 19.9893 3.6709 22.6765C3.66748 22.8582 3.521 23 3.33936 23Z" fill="#101010" fill-opacity="1.000000" fill-rule="nonzero"/>
	<path id="Vector" d="M18 12.5C18 12.7761 18.2241 13 18.5 13C18.7764 13 19 12.7761 19 12.5C19 12.2239 18.7764 12 18.5 12C18.2241 12 18 12.2239 18 12.5ZM18.4028 12.5C18.4028 12.4463 18.4463 12.4031 18.5 12.4031C18.5537 12.4031 18.5972 12.4463 18.5972 12.5C18.5972 12.5537 18.5537 12.5969 18.5 12.5969C18.4463 12.5969 18.4028 12.5537 18.4028 12.5Z" fill="#101010" fill-opacity="1.000000" fill-rule="evenodd"/>
</svg>
