<svg width="24.000000" height="24.000000" viewBox="0 0 24 24" fill="none" xmlns="http://www.w3.org/2000/svg" xmlns:xlink="http://www.w3.org/1999/xlink">
	<desc>
			Created with Pixso.
	</desc>
	<defs/>
	<path id="Vector" d="M11.5 9.81L11.5 14.46L17.95 14.46C17.67 15.96 16.82 17.22 15.54 18.07L19.44 21.09C21.71 19 23.01 15.92 23.01 12.27C23.01 11.42 22.94 10.6 22.8 9.81L11.5 9.81Z" fill="#4285F4" fill-opacity="1.000000" fill-rule="nonzero"/>
	<path id="Vector" d="M4.77 14.28L3.89 14.95L0.78 17.37C2.76 21.29 6.8 24 11.49 24C14.73 24 17.45 22.93 19.44 21.09L15.54 18.07C14.47 18.79 13.11 19.23 11.49 19.23C8.37 19.23 5.72 17.12 4.77 14.29L4.77 14.28Z" fill="#34A853" fill-opacity="1.000000" fill-rule="nonzero"/>
	<path id="Vector" d="M0.78 6.62C-0.04 8.23 -0.5 10.05 -0.5 11.99C-0.5 13.94 -0.04 15.76 0.78 17.37C0.78 17.38 4.78 14.27 4.78 14.27C4.54 13.55 4.39 12.79 4.39 11.99C4.39 11.2 4.54 10.43 4.78 9.71L0.78 6.62Z" fill="#FBBC05" fill-opacity="1.000000" fill-rule="nonzero"/>
	<path id="Vector" d="M11.5 4.77C13.26 4.77 14.83 5.38 16.09 6.56L19.52 3.13C17.44 1.18 14.74 0 11.5 0C6.8 0 2.76 2.69 0.78 6.62L4.77 9.72C5.72 6.88 8.37 4.77 11.5 4.77Z" fill="#EA4335" fill-opacity="1.000000" fill-rule="nonzero"/>
</svg>
