<svg width="11.516602" height="31.755615" viewBox="0 0 11.5166 31.7556" fill="none" xmlns="http://www.w3.org/2000/svg" xmlns:xlink="http://www.w3.org/1999/xlink">
	<desc>
			Created with Pixso.
	</desc>
	<defs/>
	<path id="Vector" d="M8.4248 31.7556L8.4248 23.0891C8.4248 22.3818 8.70557 21.7036 9.20605 21.2034C9.70605 20.7034 10.3843 20.4224 11.0913 20.4224L11.0913 9.75562C11.0913 9.75562 9.09131 8.42236 5.7583 8.42236C2.4248 8.42236 0.424805 9.75562 0.424805 9.75562L0.424805 20.4224C1.13184 20.4224 1.81055 20.7034 2.31055 21.2034C2.81055 21.7036 3.09131 22.3818 3.09131 23.0891L3.09131 31.7556M3.4248 2.75562C3.4248 2.1377 3.67041 1.54468 4.10742 1.10767C4.54443 0.670654 5.13721 0.425049 5.75537 0.425049C6.37354 0.425049 6.96631 0.670654 7.40332 1.10767C7.84082 1.54468 8.08594 2.1377 8.08594 2.75562C8.08594 4.42236 5.95801 5.75562 5.95801 5.75562L5.55811 5.75562C5.55811 5.75562 3.4248 4.42236 3.4248 2.75562Z" stroke="#101010" stroke-opacity="1.000000" stroke-width="0.850000"/>
</svg>
