<svg width="80.000000" height="80.000000" viewBox="0 0 80 80" fill="none" xmlns="http://www.w3.org/2000/svg" xmlns:xlink="http://www.w3.org/1999/xlink">
	<desc>
			Created with Pixso.
	</desc>
	<defs>
		<clipPath id="clip11_58">
			<rect id="Frame 22" width="80.000000" height="80.000000" fill="white" fill-opacity="0"/>
		</clipPath>
	</defs>
	<g clip-path="url(#clip11_58)">
		<path id="Vector" d="M57.0225 66.2L34.3667 66.2C34.0669 66.2 33.8223 66.4443 33.8223 66.7444C33.8223 67.0444 34.0669 67.2888 34.3667 67.2888L57.0225 67.2888C57.3223 67.2888 57.5669 67.0444 57.5669 66.7444C57.5669 66.4443 57.3223 66.2 57.0225 66.2Z" fill="#101010" fill-opacity="1.000000" fill-rule="nonzero"/>
		<path id="Vector" d="M57.0225 62.5223L34.3667 62.5223C34.0669 62.5223 33.8223 62.7667 33.8223 63.0668C33.8223 63.3668 34.0669 63.6112 34.3667 63.6112L57.0225 63.6112C57.3223 63.6112 57.5669 63.3668 57.5669 63.0668C57.5669 62.7667 57.3223 62.5223 57.0225 62.5223Z" fill="#101010" fill-opacity="1.000000" fill-rule="nonzero"/>
		<path id="Vector" d="M57.0225 54.8667L34.3667 54.8667C34.0669 54.8667 33.8223 55.1111 33.8223 55.4111C33.8223 55.7112 34.0669 55.9556 34.3667 55.9556L57.0225 55.9556C57.3223 55.9556 57.5669 55.7112 57.5669 55.4111C57.5669 55.1111 57.3223 54.8667 57.0225 54.8667Z" fill="#101010" fill-opacity="1.000000" fill-rule="nonzero"/>
		<path id="Vector" d="M57.0225 51.1888L34.3667 51.1888C34.0669 51.1888 33.8223 51.4333 33.8223 51.7333C33.8223 52.0333 34.0669 52.2777 34.3667 52.2777L57.0225 52.2777C57.3223 52.2777 57.5669 52.0333 57.5669 51.7333C57.5669 51.4333 57.3223 51.1888 57.0225 51.1888Z" fill="#101010" fill-opacity="1.000000" fill-rule="nonzero"/>
		<path id="Vector" d="M29.5664 60.8223L24.1665 60.8223C23.2109 60.8223 22.4443 61.6001 22.4443 62.5444L22.4443 67.2667C22.4443 68.2223 23.2222 68.9889 24.1665 68.9889L29.5664 68.9889C30.522 68.9889 31.2886 68.2112 31.2886 67.2667L31.2886 62.5444C31.2886 61.589 30.522 60.8223 29.5664 60.8223Z" fill="#101010" fill-opacity="1.000000" fill-rule="nonzero"/>
		<path id="Vector" d="M29.5664 49.489L24.1665 49.489C23.2109 49.489 22.4443 50.2668 22.4443 51.2112L22.4443 55.9335C22.4443 56.889 23.2222 57.6556 24.1665 57.6556L29.5664 57.6556C30.522 57.6556 31.2886 56.8779 31.2886 55.9335L31.2886 51.2112C31.2886 50.2668 30.522 49.489 29.5664 49.489Z" fill="#101010" fill-opacity="1.000000" fill-rule="nonzero"/>
		<path id="Vector" d="M27.3779 42.489L52.6226 42.489C53.978 42.489 55.0781 41.3889 55.0781 40.0334C55.0781 38.7445 54.0781 37.7001 52.8223 37.6001C52.4448 32.3556 48.8335 27.7889 43.8335 26.2334C43.8667 26.0223 43.8892 25.8 43.8892 25.6001C43.8892 23.4556 42.1558 21.7223 40.0225 21.7223C37.8779 21.7223 36.1338 23.4668 36.1338 25.6001C36.1338 25.8112 36.1558 26.0112 36.189 26.2223C31.189 27.7778 27.5889 32.3445 27.2002 37.6001C25.9448 37.7001 24.9448 38.7445 24.9448 40.0334C24.9224 41.3889 26.0225 42.489 27.3779 42.489ZM36.9556 27.1445L37.5 27.0001L37.3447 26.4556C37.2559 26.1556 37.2114 25.8778 37.2114 25.6001C37.2114 24.0668 38.4668 22.8112 40.0112 22.8112C41.5444 22.8112 42.7891 24.0668 42.7891 25.6001C42.7891 25.8778 42.7446 26.1667 42.6558 26.4667L42.5 27.0112L43.0444 27.1556C47.8335 28.4222 51.3335 32.6667 51.7334 37.589L28.2671 37.589C28.667 32.6667 32.1782 28.4222 36.9556 27.1445Z" fill="#101010" fill-opacity="1.000000" fill-rule="nonzero"/>
		<path id="Vector" d="M75.0112 74.4667L62.3887 74.4667C63.4443 73.6001 64.1221 72.3 64.1221 70.8445L64.1221 18.1112C64.1221 15.5111 62 13.3889 59.3999 13.3889L55.7554 13.3889L55.7554 9.16675C55.7554 7.66675 55.0664 6.28894 53.8667 5.38892C52.6665 4.48889 51.1553 4.21118 49.7109 4.63342L19.2666 13.5333L19.2886 13.589C17.3223 14.1556 15.8774 15.9556 15.8774 18.1001L15.8774 70.8334C15.8774 72.3 16.5664 73.589 17.6108 74.4556L4.98877 74.4556C4.68896 74.4667 4.44434 74.7112 4.44434 75.0111C4.44434 75.3112 4.68896 75.5557 4.98877 75.5557L20.5889 75.5557L59.3999 75.5557L75 75.5557C75.2998 75.5557 75.5444 75.3112 75.5444 75.0111C75.5557 74.7112 75.311 74.4667 75.0112 74.4667ZM20.5889 74.4667C18.5889 74.4667 16.9668 72.8445 16.9668 70.8445L16.9668 18.1112C16.9668 16.1112 18.5889 14.4889 20.5889 14.4889L55.7554 14.4889L59.3999 14.4889C61.3999 14.4889 63.022 16.1112 63.022 18.1112L63.022 70.8445C63.022 72.8445 61.3999 74.4667 59.3999 74.4667L20.5889 74.4667Z" fill="#101010" fill-opacity="1.000000" fill-rule="nonzero"/>
	</g>
</svg>
