<svg width="18.000000" height="18.000000" viewBox="0 0 18 18" fill="none" xmlns="http://www.w3.org/2000/svg" xmlns:xlink="http://www.w3.org/1999/xlink">
	<desc>
			Created with Pixso.
	</desc>
	<defs/>
	<path id="Vector" d="M3.1958 14.485C4.0459 13.873 4.94824 13.3893 5.90186 13.034C6.85547 12.678 7.88818 12.5 9 12.5C10.1113 12.5 11.144 12.678 12.0981 13.034C13.0513 13.3893 13.9531 13.8727 14.8042 14.484C15.4639 13.8013 15.9951 12.9947 16.397 12.064C16.7988 11.132 17 10.1107 17 9C17 6.78333 16.2212 4.89566 14.6631 3.33701C13.105 1.77832 11.2173 0.999329 9 1C6.7832 1 4.89551 1.77933 3.33691 3.33801C1.77832 4.89667 0.999512 6.784 1 9C1 10.1113 1.20117 11.1323 1.60303 12.063C2.00488 12.9943 2.53613 13.8017 3.1958 14.485ZM9.00098 9.5C8.1582 9.5 7.44727 9.21066 6.86816 8.63199C6.28955 8.05399 6 7.34366 6 6.50101C6 5.65833 6.28955 4.94733 6.86816 4.36801C7.4458 3.78934 8.15625 3.5 8.99902 3.5C9.8418 3.5 10.5527 3.78934 11.1318 4.36801C11.7104 4.94601 12 5.65634 12 6.49899C12 7.34167 11.7104 8.05267 11.1318 8.63199C10.5542 9.21066 9.84375 9.5 9.00098 9.5ZM9 18C7.74463 18 6.56982 17.7663 5.4751 17.299C4.38037 16.8323 3.42773 16.1937 2.61719 15.383C1.80713 14.5723 1.16846 13.6197 0.701172 12.525C0.233887 11.4303 0 10.2553 0 9C0 7.74466 0.233887 6.56967 0.701172 5.47501C1.16748 4.38034 1.80615 3.42767 2.61719 2.617C3.42773 1.80701 4.38037 1.16833 5.4751 0.700989C6.56982 0.233673 7.74463 0 9 0C10.2554 0 11.4302 0.233673 12.5249 0.700989C13.6196 1.16766 14.5723 1.80634 15.3828 2.617C16.1929 3.42767 16.8315 4.38034 17.2988 5.47501C17.7661 6.56967 18 7.74466 18 9C18 10.2553 17.7661 11.4303 17.2988 12.525C16.8325 13.6197 16.1938 14.5723 15.3828 15.383C14.5723 16.193 13.6196 16.8317 12.5249 17.299C11.4302 17.7663 10.2554 18 9 18ZM9 17C9.92188 17 10.8291 16.8387 11.7212 16.516C12.6138 16.194 13.3848 15.7527 14.0352 15.192C13.3848 14.6707 12.6328 14.2583 11.7788 13.955C10.9258 13.6517 9.99951 13.5 9 13.5C8.00146 13.5 7.07178 13.6483 6.21191 13.945C5.35205 14.2417 4.60303 14.6573 3.96484 15.192C4.61523 15.752 5.38623 16.1933 6.27881 16.516C7.1709 16.8387 8.07812 17 9 17ZM9 8.5C9.56152 8.5 10.0352 8.30701 10.4209 7.92099C10.8071 7.535 11 7.06134 11 6.5C11 5.93866 10.8071 5.465 10.4209 5.07901C10.0352 4.69299 9.56152 4.5 9 4.5C8.43848 4.5 7.96484 4.69299 7.5791 5.07901C7.19287 5.465 7 5.93866 7 6.5C7 7.06134 7.19287 7.535 7.5791 7.92099C7.96484 8.30701 8.43848 8.5 9 8.5Z" fill="#101010" fill-opacity="1.000000" fill-rule="evenodd"/>
</svg>
