<svg width="26.391602" height="36.000000" viewBox="0 0 26.3916 36" fill="none" xmlns="http://www.w3.org/2000/svg" xmlns:xlink="http://www.w3.org/1999/xlink">
	<desc>
			Created with Pixso.
	</desc>
	<defs/>
	<path id="Vector" d="M3.83008 36C3.72119 36 3.61523 35.9438 3.5542 35.8445C1.17676 31.8816 -0.019043 27.5952 0 23.105C0.0131836 20.2996 0.72168 17.499 2.11133 14.7803C2.55566 13.9114 2.93555 13.033 3.2417 12.1687L3.82373 10.2019C5.22119 4.28345 2.86475 0.530518 2.84082 0.493652C2.74463 0.344482 2.78809 0.145752 2.93701 0.0512695C3.08594 -0.0449219 3.28516 -0.00170898 3.37939 0.147461C3.48389 0.309326 5.90918 4.17261 4.44385 10.3589C4.44238 10.3652 4.44092 10.3701 4.43896 10.3767L3.85254 12.3596C3.85205 12.3611 3.85156 12.3628 3.85107 12.3645L3.8501 12.3677C3.84912 12.3704 3.84863 12.3733 3.84766 12.3755C3.55957 13.1853 3.21143 14.0068 2.80713 14.821C3.62988 15.2742 6.7583 16.7214 13.168 16.7214C19.6973 16.7214 22.8218 15.2214 23.5732 14.7976C23.1748 13.991 22.8291 13.1775 22.5439 12.3755C22.5439 12.3743 22.5435 12.373 22.543 12.3716L22.5405 12.3635C22.54 12.3621 22.5396 12.3608 22.5396 12.3596L21.9526 10.3767C21.9512 10.3701 21.9492 10.3652 21.9478 10.3589C20.4824 4.17261 22.9082 0.307617 23.0122 0.147461C23.1084 -0.00170898 23.3071 -0.0449219 23.4546 0.0512695C23.604 0.147461 23.647 0.344482 23.5508 0.493652C23.5269 0.530518 21.1753 4.30103 22.5684 10.2019L23.1499 12.1687C23.458 13.033 23.8379 13.9114 24.2803 14.7803C25.2114 16.6025 25.8374 18.4634 26.1528 20.3376C26.1562 20.3501 26.1587 20.3628 26.1606 20.3757C26.1616 20.384 26.1626 20.3926 26.1631 20.4009C26.311 21.3 26.3872 22.2024 26.3916 23.105C26.4106 27.5952 25.2163 31.8801 22.8374 35.8445C22.7798 35.9438 22.6738 36 22.5649 36C22.5088 36 22.4512 35.9856 22.3999 35.9536C22.2476 35.8621 22.1997 35.665 22.2891 35.5142C24.6055 31.6523 25.771 27.478 25.752 23.1082C25.7485 22.3193 25.688 21.5308 25.5698 20.7441C20.1118 20.8345 16.5835 23.6157 15.2085 26.0017C14.8477 26.6257 14.2192 27.0442 13.519 27.1431L13.519 35.6794C13.519 35.8557 13.3745 36 13.1982 36C13.022 36 12.8774 35.8557 12.8774 35.6794L12.8774 27.1431C12.1772 27.0442 11.5474 26.626 11.188 26.0017C9.8125 23.6135 6.28174 20.833 0.822266 20.7441C0.70459 21.5308 0.643555 22.3196 0.639648 23.1082C0.620605 27.4797 1.78613 31.6523 4.10254 35.5142C4.19385 35.6665 4.14404 35.8638 3.9917 35.9536C3.94238 35.9856 3.88623 36 3.83008 36ZM0.930664 20.105C1.23047 18.521 1.76025 16.9468 2.51758 15.3982C3.46191 15.9229 6.6499 17.3628 13.168 17.3628C19.791 17.3628 22.9761 15.876 23.8623 15.3735C24.6255 16.9309 25.1606 18.5129 25.4619 20.105C19.79 20.2314 16.103 23.1641 14.6523 25.6826C14.3574 26.1951 13.8145 26.5154 13.2275 26.5256C13.2236 26.5251 13.2192 26.5249 13.2148 26.5247L13.209 26.5244C13.2056 26.5244 13.2017 26.5242 13.1982 26.5242C13.1953 26.5242 13.1924 26.5244 13.1899 26.5244C13.1875 26.5244 13.1855 26.5244 13.1836 26.5247C13.1787 26.5249 13.1738 26.5251 13.1689 26.5256C12.582 26.5151 12.0391 26.1936 11.7441 25.6826C10.2935 23.1636 6.60303 20.2302 0.930664 20.105Z" fill="#101010" fill-opacity="1.000000" fill-rule="evenodd"/>
</svg>
