<svg width="80.000000" height="80.000000" viewBox="0 0 80 80" fill="none" xmlns="http://www.w3.org/2000/svg" xmlns:xlink="http://www.w3.org/1999/xlink">
	<desc>
			Created with Pixso.
	</desc>
	<defs>
		<clipPath id="clip11_48">
			<rect id="Frame 20" width="80.000000" height="80.000000" fill="white" fill-opacity="0"/>
		</clipPath>
	</defs>
	<g clip-path="url(#clip11_48)">
		<path id="Vector" d="M38.5776 49.3444C38.6221 49.2999 38.6665 49.2666 38.7002 49.2333C40.6113 47.3221 45.4111 36.2999 45.9556 35.0667C46.0889 34.7888 46.0332 34.4556 45.8223 34.2444C45.6113 34.0333 45.2891 33.9778 45.0112 34.1C43.7666 34.6444 32.7446 39.4445 30.8223 41.3555C30.7891 41.3888 30.7446 41.4333 30.7109 41.4778C30.6665 41.5222 30.6221 41.5555 30.5889 41.5889C28.7109 43.4667 24.2109 53.7333 23.3335 55.7555C23.2002 56.0444 23.2554 56.3666 23.4668 56.5778C23.6113 56.7111 23.7891 56.7888 23.978 56.7888C24.0776 56.7888 24.1777 56.7666 24.2778 56.7222C25.5225 56.1777 36.5444 51.3777 38.4668 49.4667C38.5 49.4333 38.5332 49.3888 38.5776 49.3444ZM38.1221 48.2222L36.6333 46.7333C36.6558 46.7111 36.6665 46.6777 36.6777 46.6555C36.7109 46.6111 36.7334 46.5667 36.7554 46.5222C36.7998 46.4445 36.8442 46.3555 36.8887 46.2777C36.9111 46.2333 36.9336 46.1888 36.9556 46.1333C36.9888 46.0444 37.0225 45.9445 37.0444 45.8555C37.0557 45.811 37.0669 45.7666 37.0776 45.7222C37.1001 45.5778 37.1221 45.4333 37.1221 45.2888C37.1221 44.6555 36.8779 44.0667 36.4224 43.6111C36.311 43.5 36.189 43.4 36.0669 43.3221C36.0225 43.2888 35.978 43.2777 35.9336 43.2444C35.8442 43.1888 35.7554 43.1444 35.6665 43.1C35.6113 43.0778 35.5557 43.0667 35.5 43.0444C35.4111 43.0111 35.3335 42.9889 35.2446 42.9667C35.189 42.9556 35.1221 42.9445 35.0669 42.9445C34.978 42.9333 34.8999 42.9222 34.811 42.9222C34.7554 42.9222 34.689 42.9222 34.6333 42.9222C34.5444 42.9222 34.4668 42.9333 34.3779 42.9445C34.3223 42.9556 34.2554 42.9667 34.2002 42.9778C34.1113 43 34.0332 43.0222 33.9556 43.0555C33.8999 43.0778 33.8442 43.1 33.7891 43.1222C33.7109 43.1555 33.6333 43.2 33.5557 43.2444C33.5 43.2777 33.4556 43.311 33.3999 43.3444C33.3779 43.3666 33.3442 43.3777 33.3223 43.4L31.8335 41.9111C33.6113 40.4556 40.2334 37.3777 44.5889 35.4667C42.689 39.7888 39.6221 46.3666 38.1221 48.2222ZM31.0669 42.7L32.6333 44.2666C32.2109 45.1444 32.3555 46.2333 33.0776 46.9667C33.5444 47.4333 34.1445 47.6555 34.7554 47.6555C35.1113 47.6555 35.4556 47.5667 35.7778 47.4111L37.3442 48.9778C35.4111 50.4667 28.9668 53.4667 24.689 55.3444C26.5557 51.1 29.5557 44.6777 31.0669 42.7Z" fill="#101010" fill-opacity="1.000000" fill-rule="nonzero"/>
		<path id="Vector" d="M53.3115 69.7555C53.3892 70.0444 53.6558 70.2555 53.9556 70.2555L57.8447 70.2555C58.1445 70.2555 58.4111 70.0555 58.4893 69.7555L59.0781 67.5333C59.189 67.1111 58.8667 66.6888 58.4336 66.6888L53.3779 66.6888C52.9448 66.6888 52.6226 67.1 52.7334 67.5333L53.3115 69.7555Z" fill="#101010" fill-opacity="1.000000" fill-rule="nonzero"/>
		<path id="Vector" d="M72.9443 60.0667L72.4443 60.0667L69.7998 52.8556C69.1333 51.0444 67.3887 49.8223 65.4556 49.8223L64.4556 49.8223C64.689 48.3 64.8223 46.7666 64.8223 45.2666C64.8223 37.7111 62.022 30.7889 57.4111 25.4889L58.6997 24.0889C59.4775 23.2444 59.8774 22.1555 59.833 21.0111C59.7886 19.8667 59.2998 18.8112 58.4556 18.0333C56.7222 16.4333 54 16.5444 52.3999 18.2777L50.9331 19.8667C47.4331 17.6111 43.4443 16.0555 39.1553 15.4L39.1553 12.7333L41.1108 12.7333C42.0889 12.7333 42.8887 11.9333 42.8887 10.9556L42.8887 6.32227C42.8887 5.34448 42.0889 4.54443 41.1108 4.54443L28.1665 4.54443C27.189 4.54443 26.3887 5.34448 26.3887 6.32227L26.3887 10.9778C26.3887 11.9556 27.189 12.7555 28.1665 12.7555L30.1001 12.7555L30.1001 15.4222C25.811 16.0667 21.8223 17.6333 18.3223 19.8889L16.8555 18.3C16.0776 17.4556 15.022 16.9667 13.8774 16.9222C12.7441 16.8778 11.6445 17.2777 10.7998 18.0555C9.95557 18.8334 9.4668 19.8889 9.42188 21.0333C9.37744 22.1777 9.77783 23.2666 10.5557 24.1111L11.8442 25.5111C7.24414 30.8 4.44434 37.7111 4.44434 45.2666C4.44434 61.9111 17.9888 75.4556 34.6333 75.4556C37.5332 75.4556 40.4219 75.0222 43.2109 74.1888C44.0444 74.9556 45.1553 75.4111 46.333 75.4111L65.4556 75.4111C67.3887 75.4111 69.1333 74.1888 69.7998 72.3778L72.3999 65.2778L72.9443 65.2778C74.3887 65.2778 75.5557 64.1111 75.5557 62.6666C75.5557 61.2444 74.3887 60.0667 72.9443 60.0667ZM35.7554 64.6555C35.5444 64.2333 35.1108 63.9667 34.6445 63.9667C34.1665 63.9667 33.7441 64.2333 33.5332 64.6555L31.6665 68.3889C21.2441 67.0555 12.8667 58.6777 11.5332 48.2555L15.2666 46.3889C15.689 46.1777 15.9556 45.7444 15.9556 45.2777C15.9556 44.8 15.689 44.3778 15.2666 44.1555L11.5332 42.2889C12.8667 31.8667 21.2441 23.4889 31.6665 22.1555L33.5332 25.8889C33.7441 26.3112 34.1777 26.5778 34.6445 26.5778C35.1221 26.5778 35.5444 26.3112 35.7554 25.8889L37.6221 22.1555C48.0444 23.4889 56.4219 31.8667 57.7554 42.2889L54.022 44.1555C53.6001 44.3667 53.333 44.7888 53.333 45.2666C53.333 45.7444 53.6001 46.1666 54.022 46.3778L57.7666 48.2444C57.6997 48.7333 57.6108 49.2555 57.5 49.8112L46.3442 49.8112C44.4111 49.8112 42.6665 51.0333 42 52.8445L39.3555 60.0555L38.8555 60.0555C37.4111 60.0555 36.2441 61.2222 36.2441 62.6666C36.2441 64.1 37.4111 65.2778 38.8555 65.2778L39.3999 65.2778L40.3442 67.8556C39.4219 68.0889 38.5112 68.2555 37.6221 68.3778L35.7554 64.6555ZM68.7778 53.2333L71.2778 60.0778L40.522 60.0778L43.022 53.2333C43.5332 51.8445 44.8555 50.9222 46.333 50.9222L65.4556 50.9222C66.9331 50.9111 68.2666 51.8445 68.7778 53.2333ZM35.1777 11.6555L35.1777 5.6333L37.9888 5.6333L37.9888 11.6555L35.1777 11.6555ZM34.0889 11.6555L31.2778 11.6555L31.2778 5.6333L34.0889 5.6333L34.0889 11.6555ZM41.7998 6.32227L41.7998 10.9778C41.7998 11.3556 41.4888 11.6666 41.1108 11.6666L39.1777 11.6666L39.0889 11.6666L39.0889 5.6333L41.1108 5.6333C41.4888 5.6333 41.7998 5.93335 41.7998 6.32227ZM28.1665 11.6555C27.7886 11.6555 27.4775 11.3445 27.4775 10.9667L27.4775 6.32227C27.4775 5.94446 27.7886 5.6333 28.1665 5.6333L30.1997 5.6333L30.1997 11.6555L30.1108 11.6555L28.1665 11.6555ZM5.5332 45.2666C5.5332 29.2222 18.5889 16.1666 34.6333 16.1666C50.6777 16.1666 63.7441 29.2222 63.7441 45.2666C63.7441 46.7666 63.6108 48.3 63.3667 49.8223L58.6108 49.8223C58.6777 49.4556 58.7441 49.1 58.7998 48.7666L58.8223 48.7777L58.9111 48C59.0112 47.1111 59.0664 46.1888 59.0664 45.2666C59.0664 44.3445 59.0112 43.4222 58.9111 42.5333C58.9111 42.5333 58.9111 42.5333 58.9111 42.5222L58.8223 41.7555L58.7778 41.7777C57.2441 31.1666 48.7441 22.6666 38.1333 21.1333L38.1445 21.1L37.3667 21.0111C36.0332 20.8556 34.6221 20.8223 33.2554 20.9C32.7998 20.9222 32.3442 20.9667 31.8999 21.0111L31.1333 21.1L31.1445 21.1333C20.5332 22.6555 12.022 31.1666 10.5 41.7777L10.4668 41.7666L10.3774 42.5444C10.2778 43.4333 10.2222 44.3556 10.2222 45.2777C10.2222 46.2 10.2778 47.1222 10.3774 48.0111C10.3774 48.0111 10.3774 48.0111 10.3774 48.0222L10.4668 48.7888L10.5 48.7777C12.0332 59.3889 20.5332 67.9 31.1445 69.4222L31.1333 69.4556L31.9111 69.5444C32.7998 69.6444 33.7222 69.7 34.6445 69.7C35.5664 69.7 36.4888 69.6444 37.3774 69.5444L38.1553 69.4556L38.1445 69.4222C38.9888 69.3 39.8555 69.1222 40.7334 68.9L42.0112 72.4111C42.1221 72.7222 42.2886 73.0222 42.4668 73.3C39.9111 74.0111 37.2886 74.4 34.6553 74.4C18.5889 74.3667 5.5332 61.3112 5.5332 45.2666ZM68.7778 72.0111C68.2666 73.4 66.9443 74.3223 65.4668 74.3223L46.3442 74.3223C44.8667 74.3223 43.5332 73.3889 43.0332 72.0111L41.5776 68.0444L40.5664 65.2778L71.2441 65.2778L68.7778 72.0111Z" fill="#101010" fill-opacity="1.000000" fill-rule="nonzero"/>
		<path id="Vector" d="M51.7666 56.3L60.0337 56.3C60.8003 56.3 61.4224 55.6777 61.4224 54.9111C61.4224 54.1444 60.8003 53.5222 60.0337 53.5222L51.7666 53.5222C51 53.5222 50.3779 54.1444 50.3779 54.9111C50.3779 55.6777 51 56.3 51.7666 56.3Z" fill="#101010" fill-opacity="1.000000" fill-rule="nonzero"/>
	</g>
</svg>
