<svg width="33.266113" height="36.000000" viewBox="0 0 33.2661 36" fill="none" xmlns="http://www.w3.org/2000/svg" xmlns:xlink="http://www.w3.org/1999/xlink">
	<desc>
			Created with Pixso.
	</desc>
	<defs/>
	<path id="Vector" d="M32.9375 22.3291C32.7588 22.3291 32.6128 22.1848 32.6128 22.0066C32.5996 19.0967 31.8589 16.1851 30.4116 13.3577C29.1509 10.8948 28.3789 8.81616 28.0591 7.01587L25.606 7.01587L25.606 8.9895C25.606 9.11572 25.5327 9.22925 25.4189 9.28271C25.3052 9.33618 25.1704 9.31836 25.0732 9.2373L20.6235 5.53174C20.5483 5.47021 20.5063 5.37939 20.5063 5.28223C20.5063 5.18506 20.5483 5.09424 20.6235 5.03271L25.0732 1.32715C25.1704 1.24609 25.3052 1.22827 25.4189 1.28174C25.5327 1.33521 25.606 1.4502 25.606 1.57495L25.606 3.54858L28.0166 3.54858C28.0508 2.37231 28.2036 1.18457 28.439 0.244873C28.4829 0.0715332 28.6602 -0.0339355 28.834 0.0100098C29.0078 0.0537109 29.1133 0.230225 29.0693 0.403564C28.8228 1.38062 28.6733 2.646 28.6602 3.87598C28.6587 4.0542 28.5137 4.19678 28.3354 4.19678L25.2827 4.19678C25.104 4.19678 24.9575 4.05078 24.9575 3.87256L24.9575 2.26685L21.3398 5.28076L24.9575 8.29443L24.9575 6.68872C24.9575 6.5105 25.104 6.36475 25.2827 6.36475L28.3354 6.36475C28.4961 6.36475 28.6323 6.4812 28.6567 6.63843C28.9346 8.43213 29.6997 10.532 30.9932 13.0596C32.4878 15.9792 33.2529 18.9883 33.2661 22.0002C33.2627 22.1833 33.1182 22.3291 32.9375 22.3291Z" fill="#101010" fill-opacity="1.000000" fill-rule="nonzero"/>
	<path id="Vector" d="M26.6665 35.9526C26.7188 35.9854 26.7783 36 26.8354 36C26.9473 36 27.0557 35.9429 27.1182 35.8381C29.7061 31.5391 31.0083 26.8901 30.9868 22.0205C30.9736 18.9778 30.2002 15.9417 28.6895 12.9941C28.0063 11.6624 27.4614 10.2834 27.0703 8.89624C27.021 8.7229 26.8389 8.62158 26.665 8.67065C26.4907 8.71973 26.3887 8.90112 26.438 9.07471C26.813 10.4053 27.3247 11.7288 27.9614 13.012C27.1748 13.4607 23.7905 15.1123 16.5952 15.1123C9.59473 15.1123 6.18213 13.5359 5.28906 13.0449C5.93115 11.7524 6.44824 10.4187 6.82764 9.07788C6.87646 8.90283 6.7749 8.7229 6.60059 8.67383C6.42529 8.62476 6.24463 8.72607 6.19531 8.89966C5.80273 10.2852 5.25928 11.6641 4.57617 12.9973L4.57031 13.0088C4.56641 13.0159 4.5625 13.0229 4.55908 13.03C3.5625 14.9812 2.88916 16.9724 2.54541 18.9788C2.52832 19.0186 2.51855 19.0625 2.51855 19.1086C2.51855 19.1177 2.51855 19.1265 2.51953 19.1353C2.36328 20.0957 2.28271 21.0593 2.27881 22.0237C2.25537 26.8936 3.55811 31.5425 6.14746 35.8413C6.20996 35.9429 6.31836 36 6.43018 36C6.4873 36 6.54492 35.9836 6.59912 35.9558C6.75537 35.8643 6.80615 35.6631 6.7124 35.5076C4.18701 31.3118 2.91553 26.7773 2.93701 22.0286C2.94043 21.1646 3.00781 20.3003 3.13818 19.4382C9.09912 19.5339 12.9541 22.5598 14.4551 25.1562C14.8467 25.834 15.5342 26.2859 16.2979 26.3875L16.2979 35.6729C16.2979 35.8528 16.4458 36 16.6265 36C16.8066 36 16.9546 35.8528 16.9546 35.6729L16.9546 26.3877C17.7197 26.2861 18.4058 25.8342 18.7974 25.1562C20.3013 22.5579 24.1602 19.5295 30.127 19.438C30.2573 20.2988 30.3247 21.1621 30.3286 22.0254C30.3496 26.7742 29.0786 31.3101 26.5532 35.5044C26.4614 35.6582 26.5103 35.8594 26.6665 35.9526ZM30.0161 18.7856C23.8311 18.9143 19.8101 22.0969 18.229 24.8308C17.9038 25.3928 17.3037 25.7456 16.6562 25.7563C16.6465 25.7554 16.6362 25.7549 16.6265 25.7549C16.6162 25.7549 16.606 25.7554 16.5962 25.7563C15.9487 25.7456 15.3486 25.3928 15.0234 24.8308C13.4448 22.0989 9.42725 18.9187 3.24902 18.7859C3.57568 17.0525 4.15869 15.3296 4.99268 13.6343C6.01123 14.2 9.48096 15.7683 16.5952 15.7683C23.8574 15.7683 27.3218 14.134 28.2578 13.6003C29.0996 15.3059 29.6875 17.04 30.0161 18.7856Z" fill="#101010" fill-opacity="1.000000" fill-rule="evenodd"/>
	<path id="Vector" d="M0 22.0034C0 22.1833 0.144531 22.3291 0.324707 22.3291C0.505371 22.3291 0.649902 22.1848 0.652832 22.01C0.664551 19.0994 1.40527 16.189 2.85449 13.3596C4.11328 10.8965 4.88525 8.81738 5.20703 7.01685L7.66016 7.01685L7.66016 8.99072C7.66016 9.11548 7.73291 9.23047 7.84668 9.28418C7.96045 9.33765 8.09521 9.31982 8.19287 9.23877L12.6426 5.53271C12.7173 5.47095 12.7598 5.38037 12.7598 5.28296C12.7598 5.18579 12.7173 5.09497 12.6426 5.03345L8.19287 1.32739C8.09521 1.24634 7.96045 1.22852 7.84668 1.28198C7.73291 1.33545 7.66016 1.44897 7.66016 1.57544L7.66016 3.54907L5.24902 3.54907C5.21484 2.37256 5.06396 1.18311 4.82666 0.244873C4.78271 0.0715332 4.60596 -0.0339355 4.43164 0.0100098C4.25781 0.0537109 4.15234 0.230225 4.19629 0.403809C4.44141 1.38086 4.59131 2.64648 4.60596 3.87646C4.60742 4.05469 4.75195 4.19727 4.93066 4.19727L7.9834 4.19727C8.16211 4.19727 8.30811 4.05151 8.30811 3.87329L8.30811 2.26733L11.9263 5.28149L8.30811 8.29565L8.30811 6.6897C8.30811 6.51147 8.16211 6.36548 7.9834 6.36548L4.93066 6.36548C4.77002 6.36548 4.6333 6.48218 4.60889 6.6394C4.32959 8.43335 3.56592 10.5352 2.27295 13.0615C0.77832 15.9817 0.0131836 18.9893 0 22.0034Z" fill="#101010" fill-opacity="1.000000" fill-rule="nonzero"/>
	<path id="Vector" d="M15.9492 11.1646C15.9492 11.542 16.2554 11.8481 16.6328 11.8481C17.0103 11.8481 17.3164 11.542 17.3164 11.1646C17.3164 10.7869 17.0103 10.481 16.6328 10.481C16.2554 10.481 15.9492 10.7869 15.9492 11.1646ZM16.5215 11.1646C16.5215 11.1028 16.5713 11.0532 16.6328 11.0532C16.6943 11.0532 16.7441 11.1028 16.7441 11.1646C16.7441 11.2261 16.6943 11.2759 16.6328 11.2759C16.5713 11.2759 16.5215 11.2261 16.5215 11.1646Z" fill="#101010" fill-opacity="1.000000" fill-rule="evenodd"/>
</svg>
